<svg height="300px" width="300px" fill="#ffffff" xmlns="http://www.w3.org/2000/svg" xmlns:xlink="http://www.w3.org/1999/xlink" version="1.0" x="0px" y="0px" viewBox="0 0 100 100" enable-background="new 0 0 100 100" xml:space="preserve"><path d="M52.3499985,12.4529362c0,0-16.7369957,1.7519789-23.1222973,26.971159  C23.5956554,61.6693649,5.7546749,65.3293381,5.7546749,65.3293381l42.3401871,23.4580536  c0,0,17.8411942-3.6599808,23.4732361-25.9048309C77.9531937,37.6629639,94.6903992,35.910984,94.6903992,35.910984  L52.3499985,12.4529362z M66.6119232,61.627758c-3.8297234,15.1262703-13.9276276,20.2037239-17.9117088,21.6503181  L17.0813808,65.7599487c6.2644386-4.0868416,13.6879864-11.5948448,17.1022854-25.0810509  c4.3739166-17.2747402,13.8011551-21.7310333,17.376049-22.8194141l31.590126,17.5023174  C77.1733093,39.4419861,70.2791824,47.1438713,66.6119232,61.627758z"/></svg>
