<svg height="300px" width="300px" fill="#ffffff" xmlns:x="http://ns.adobe.com/Extensibility/1.0/" xmlns:i="http://ns.adobe.com/AdobeIllustrator/10.0/" xmlns:graph="http://ns.adobe.com/Graphs/1.0/" xmlns="http://www.w3.org/2000/svg" xmlns:xlink="http://www.w3.org/1999/xlink" xmlns:a="http://ns.adobe.com/AdobeSVGViewerExtensions/3.0/" version="1.1" x="0px" y="0px" viewBox="0 0 100 100" enable-background="new 0 0 100 100" xml:space="preserve"><path d="M92.92,25.536c-0.008-0.028-0.021-0.054-0.029-0.081c-0.045-0.136-0.105-0.266-0.18-0.39  c-0.021-0.035-0.04-0.07-0.062-0.104c-0.094-0.139-0.201-0.269-0.331-0.382c-0.013-0.011-0.026-0.018-0.04-0.028  c-0.085-0.071-0.174-0.141-0.273-0.198c-0.039-0.022-0.081-0.035-0.121-0.055c-0.021-0.01-0.036-0.027-0.057-0.037L54.15,7.179  c-0.416-0.189-0.887-0.229-1.328-0.115L8.795,18.489c-0.314,0.029-0.627,0.124-0.909,0.309C7.236,19.223,6.925,19.96,7,20.681  v45.946c0,0.729,0.396,1.401,1.036,1.752L52.36,92.752c0.093,0.051,0.192,0.08,0.29,0.115c0.059,0.021,0.115,0.053,0.174,0.068  c0.123,0.032,0.249,0.041,0.374,0.049C53.24,92.987,53.281,93,53.322,93C53.325,93,53.328,93,53.331,93  c0.149-0.001,0.298-0.024,0.443-0.058c0.041-0.009,0.081-0.021,0.121-0.033c0.12-0.036,0.237-0.083,0.35-0.142  c0.026-0.014,0.055-0.023,0.081-0.039c0.113-0.066,0.223-0.142,0.324-0.231l37.676-33.369C92.755,58.749,93,58.204,93,57.631V26.083  c0-0.016-0.006-0.031-0.007-0.046C92.989,25.867,92.967,25.699,92.92,25.536z M53.143,11.113L88.16,26.992L52.575,88.306  l-0.44-0.242L24.19,41.789l51.644-11.051c0.258-0.056,0.431-0.303,0.39-0.566c-0.042-0.273-0.298-0.459-0.571-0.417l-53.115,8.299  c-0.035,0.006-0.076,0.013-0.11,0.021c-0.141,0.03-0.274,0.076-0.399,0.132l-9.929-16.441L53.143,11.113z M11,27.213l39.059,59.709  L11,65.445V27.213z M61.273,81.288L89,33.514V56.73L61.273,81.288z"/></svg>
