<svg height="300px" width="300px" fill="#ffffff" xmlns="http://www.w3.org/2000/svg" viewBox="0 0 32 32" x="0px" y="0px"><title>Artboard 76</title><g data-name="Layer 2"><path d="M5.5,25A2.5,2.5,0,1,1,8,22.5,2.5,2.5,0,0,1,5.5,25Zm0-4A1.5,1.5,0,1,0,7,22.5,1.5,1.5,0,0,0,5.5,21Z"/><path d="M5.5,12A2.5,2.5,0,1,1,8,9.5,2.5,2.5,0,0,1,5.5,12Zm0-4A1.5,1.5,0,1,0,7,9.5,1.5,1.5,0,0,0,5.5,8Z"/><path d="M5.5,12A2.5,2.5,0,1,1,8,9.5,2.5,2.5,0,0,1,5.5,12Zm0-4A1.5,1.5,0,1,0,7,9.5,1.5,1.5,0,0,0,5.5,8Z"/><path d="M5.5,25A2.5,2.5,0,1,1,8,22.5,2.5,2.5,0,0,1,5.5,25Zm0-4A1.5,1.5,0,1,0,7,22.5,1.5,1.5,0,0,0,5.5,21Z"/><path d="M5.5,14H5a.5.5,0,0,1-.5-.5.53.53,0,0,1,.17-.39A.52.52,0,0,1,5.06,13l.44,0a.5.5,0,0,1,0,1Z"/><path d="M13.12,16.5a.5.5,0,0,1-.26-.07L8.86,14H5.5a4.51,4.51,0,1,1,4.14-2.74l6.09,2.83a.5.5,0,0,1,0,.88l-2.4,1.45A.5.5,0,0,1,13.12,16.5ZM5.5,6a3.5,3.5,0,0,0-.44,7l.44,0H9a.5.5,0,0,1,.26.07l3.86,2.34,1.34-.81L8.75,12a.5.5,0,0,1-.22-.7A3.49,3.49,0,0,0,5.5,6Zm0,6A2.5,2.5,0,1,1,8,9.5,2.5,2.5,0,0,1,5.5,12Zm0-4A1.5,1.5,0,1,0,7,9.5,1.5,1.5,0,0,0,5.5,8Z"/><path d="M26.48,22.77a11.25,11.25,0,0,1-5.85-1.63l-5.37-3.26a.5.5,0,0,1,0-.88l3.13-1.45a.51.51,0,0,1,.42,0L30.71,21a.5.5,0,0,1,0,.92A11.2,11.2,0,0,1,26.48,22.77Zm-9.9-5.26,4.57,2.77a10.46,10.46,0,0,0,8,1.14l-10.5-4.87Z"/><path d="M5,19a.5.5,0,0,1-.5-.5A.53.53,0,0,1,5,18h.5a.5.5,0,0,1,0,1l-.44,0Z"/><path d="M5.5,27a4.5,4.5,0,1,1,0-9H8.86l11.77-7.14A11.46,11.46,0,0,1,30.69,10a.5.5,0,0,1,0,.92L9.64,20.74A4.49,4.49,0,0,1,5.5,27Zm0-8-.44,0a3.51,3.51,0,1,0,3.46,1.72.5.5,0,0,1,.22-.7l20.4-9.47a10.45,10.45,0,0,0-8,1.14L9.26,18.93A.5.5,0,0,1,9,19Zm0,6A2.5,2.5,0,1,1,8,22.5,2.5,2.5,0,0,1,5.5,25Zm0-4A1.5,1.5,0,1,0,7,22.5,1.5,1.5,0,0,0,5.5,21Z"/><circle cx="15.86" cy="15.86" r="0.5"/></g></svg>
